# xmcd CD database file
#
# Track frame offsets:
#	150
#	30934
#	64289
#	92072
#	106193
#	131897
#	145403
#	159914
#	201825
#
# Disc length: 3446 seconds
#
# Revision: 1
# Processed by: cddbd v1.5.2PL0 Copyright (c) Steve Scherf et al.
# Submitted via: CDex 1.70beta2
#
DISCID=780d7409
DTITLE=Various Artist - Jazz Roads CD393 - Bedbop - Bebop Live Concerts Vol.4 (1947)
DYEAR=1900
DGENRE=Jazz
TTITLE0=Just Jazz Concert - Groovin' High
TTITLE1=Just Jazz Concert - Be Bop
TTITLE2=Just Jazz Concert - Hot House
TTITLE3=Just Jazz Concert - Donna Lee (Incomplete)
TTITLE4=Erroll Garner Trio - Lover
TTITLE5=Erroll Garner Trio - Tenderly
TTITLE6=Erroll Garner Trio - Someone To Watch Over Me
TTITLE7=Just Jazz Concert - Blue Lou
TTITLE8=Just Jazz Concert - One O'Clock Jump
EXTD=
EXTT0=
EXTT1=
EXTT2=
EXTT3=
EXTT4=
EXTT5=
EXTT6=
EXTT7=
EXTT8=
PLAYORDER=
